<svg xmlns="http://www.w3.org/2000/svg" id="surface1" width="601.325" height="236.875" viewBox="0 0 601.325 236.875"><g id="Group_28200" data-name="Group 28200" transform="translate(49.425)"><path id="Path_5312" data-name="Path 5312" d="M334.41,266.047c-16.483-40.792-52.777-69.133-94.912-69.133-42,0-78.195,28.162-94.752,68.75a42.7,42.7,0,0,1,10.8,2.681c15.076-35.866,46.989-60.612,83.945-60.612,37.276,0,69.439,25.175,84.351,61.549.541-.254,1.089-.5,1.649-.739a45.255,45.255,0,0,1,8.916-2.495" transform="translate(-143.937 -196.914)" fill="#f47a00"></path><path id="Path_5313" data-name="Path 5313" d="M238.177,441.548l.012-.041c.276.019.555.041.839.041a12.272,12.272,0,1,0-12.254-12.619c-31.917-5-58.689-28.569-71.822-60.945a40.128,40.128,0,0,1-11.054,2.827c16.009,41.243,52.137,70.16,94.279,70.737" transform="translate(-143.898 -204.673)" fill="#f47a00"></path><path id="Path_5324" data-name="Path 5324" d="M358.9,413.257a8.014,8.014,0,0,1-1.171,4.479,9,9,0,0,1-3.7,3.061,11.278,11.278,0,0,1-4.725,1.022q-11.081-.079-11.367-8.82h5.187a3.917,3.917,0,0,0,1.768,3.282,6.255,6.255,0,0,0,3.717,1.055,6.921,6.921,0,0,0,3.6-.91,2.718,2.718,0,0,0,1.54-2.4q.033-2.327-3.967-3.308a73.818,73.818,0,0,1-7.443-2.04,6.641,6.641,0,0,1-3.934-6.544,7.919,7.919,0,0,1,1.189-4.2,7.513,7.513,0,0,1,3.5-2.856,12.019,12.019,0,0,1,4.867-.98,11.149,11.149,0,0,1,6.82,2.077,8.024,8.024,0,0,1,3.374,6.485H353.04a3.892,3.892,0,0,0-1.741-3.024,5.762,5.762,0,0,0-3.341-.948,6.377,6.377,0,0,0-3.021.694,2.793,2.793,0,0,0-1.633,2.476q0,2.22,4.042,3.207,6.8,1.673,7.514,2a6.365,6.365,0,0,1,4.039,6.194" transform="translate(-152.699 -205.857)" fill="#f47a00"></path><path id="Path_5325" data-name="Path 5325" d="M428.8,399.561h-7.708v21.565h-5.366V399.561h-7.671v-4.628H428.8Zm0,0" transform="translate(-155.879 -205.895)" fill="#f47a00"></path><path id="Path_5326" data-name="Path 5326" d="M499.357,412.165q0,4.885-2.77,7.358-2.629,2.333-7.462,2.335-6.18-.039-8.916-3.937a9.336,9.336,0,0,1-1.454-5.464V394.934h5.433v17.012a5.83,5.83,0,0,0,1.138,3.752,4.13,4.13,0,0,0,3.445,1.532q5.118,0,5.116-5.065V394.934h5.471Zm0,0" transform="translate(-159.086 -205.895)" fill="#f47a00"></path><path id="Path_5327" data-name="Path 5327" d="M564.338,400.613q-1.393-1.2-5.061-1.2c-.522,0-1.2.015-2.051.053s-1.406.055-1.693.055v17.121h5.277a4.907,4.907,0,0,0,4.419-2.834,12.265,12.265,0,0,0,1.424-6.145q0-5.052-2.316-7.052m3.278,18.436a8.771,8.771,0,0,1-6.042,2.077H550.313V394.934h11.37a9.635,9.635,0,0,1,5.895,1.711,10.03,10.03,0,0,1,3.375,4.59,17.082,17.082,0,0,1,1.067,6.194,18.989,18.989,0,0,1-1.138,6.594,11.638,11.638,0,0,1-3.266,5.026" transform="translate(-162.332 -205.895)" fill="#f47a00"></path><path id="Path_5328" data-name="Path 5328" d="M627.534,421.127h-5.362V394.934h5.362Zm0,0" transform="translate(-165.591 -205.895)" fill="#f47a00"></path><path id="Path_5329" data-name="Path 5329" d="M696.5,408.483q0-9.543-7.07-9.581a5.87,5.87,0,0,0-5.188,2.8,10.92,10.92,0,0,0-1.633,5.975,11.348,11.348,0,0,0,1.813,6.484A6.408,6.408,0,0,0,690,417.3a5.6,5.6,0,0,0,4.546-2.259,10.2,10.2,0,0,0,1.954-6.555m5.3-.329q0,6.667-3.308,10.345a11,11,0,0,1-8.6,3.5q-6.075,0-9.322-3.9t-3.253-10.748a13.646,13.646,0,0,1,3.267-9.471,11.608,11.608,0,0,1,9.025-3.826A11.36,11.36,0,0,1,698,397.444q3.8,3.861,3.8,10.71" transform="translate(-168.092 -205.856)" fill="#f47a00"></path></g><g id="Group_28201" data-name="Group 28201" transform="translate(0 65.528)"><path id="Path_5314" data-name="Path 5314" d="M175.649,331.3q-4.044,21.781-20.457,30.735a40.625,40.625,0,0,1-19.94,4.81,44.447,44.447,0,0,1-22.058-5.481,38.051,38.051,0,0,1-15.438-16.568q-5.633-11.087-5.631-27.524a70.161,70.161,0,0,1,3.625-23.386q6.344-18.3,22.047-24.988a46.552,46.552,0,0,1,17.716-3.341,43.361,43.361,0,0,1,20.066,4.545q18.112,9.09,20.07,29.666H155.97q-1.952-8.151-7.622-12.564a19.993,19.993,0,0,0-12.575-4.408,20.254,20.254,0,0,0-17.59,9.219Q111.8,301.236,111.8,316.2q0,12.96,4.953,21.917,5.99,11.219,17.851,11.22,17.458,0,21.368-18.037Zm0,0" transform="translate(-92.125 -265.555)" fill="#3b3b3b"></path><path id="Path_5315" data-name="Path 5315" d="M224.666,330.645q-2.723,2.277-9.591,3.61-7.78,1.472-10.11,2.8-4.793,2.539-4.8,8.819,0,8.021,8.167,8.017a18.975,18.975,0,0,0,7.775-1.8,16.376,16.376,0,0,0,6.093-4.345q2.718-3.474,2.722-10.288c0-.8-.045-1.958-.131-3.476s-.131-2.625-.131-3.341m19.414,34.743H227.012a25.269,25.269,0,0,1-1.693-5.746q-6.388,7.215-20.327,7.216-9.644,0-15.9-4.542-7.3-5.343-7.3-15.5,0-14.561,11.075-20.044,5.085-2.533,20.72-4.541,11.075-1.472,11.075-6.146a7.838,7.838,0,0,0-3.322-6.616A12.646,12.646,0,0,0,213.591,307a12.333,12.333,0,0,0-7.821,2.539,10.863,10.863,0,0,0-4.169,7.883h-17.46q.649-8.687,3.975-14.029t10.751-8.286A43.033,43.033,0,0,1,214.5,292.43q29.573.273,29.575,29Zm0,0" transform="translate(-96.192 -266.774)" fill="#3b3b3b"></path><path id="Path_5316" data-name="Path 5316" d="M273.19,364.29H254.82V268.215h18.37Zm0,0" transform="translate(-99.504 -265.675)" fill="#3b3b3b"></path><path id="Path_5317" data-name="Path 5317" d="M300.49,364.29H282.117V268.215H300.49Zm0,0" transform="translate(-100.742 -265.675)" fill="#3b3b3b"></path><path id="Path_5318" data-name="Path 5318" d="M391.3,331.3q-4.045,21.781-20.458,30.735a40.626,40.626,0,0,1-19.94,4.81,44.441,44.441,0,0,1-22.057-5.481A38.074,38.074,0,0,1,313.4,344.794q-5.627-11.087-5.628-27.524a70.171,70.171,0,0,1,3.625-23.386q6.343-18.3,22.043-24.988a46.588,46.588,0,0,1,17.721-3.341,43.354,43.354,0,0,1,20.066,4.545q18.113,9.09,20.071,29.666H371.623A21.715,21.715,0,0,0,364,287.2a19.992,19.992,0,0,0-12.575-4.408,20.255,20.255,0,0,0-17.59,9.219q-6.382,9.223-6.384,24.186,0,12.96,4.952,21.917,5.991,11.219,17.851,11.22,17.458,0,21.368-18.037Zm0,0" transform="translate(-101.906 -265.555)" fill="#3b3b3b"></path><path id="Path_5319" data-name="Path 5319" d="M444.2,322.89q-.654-7.154-4.754-11.258a12.987,12.987,0,0,0-9.45-4.11,12.186,12.186,0,0,0-8.991,3.844q-4.167,4.107-5.209,11.524Zm18.762,11.892H415.145q.649,8.821,5.474,13.629a14.108,14.108,0,0,0,10.162,4.008,15.024,15.024,0,0,0,7.95-2.137,9.786,9.786,0,0,0,4.561-5.746h18.76q-3.126,10.823-11.206,16.769a31.429,31.429,0,0,1-19.156,5.948q-34.787,0-34.789-38.886,0-16.435,8.8-26.257t24.69-9.819q32.573,0,32.574,42.49" transform="translate(-105.949 -266.768)" fill="#3b3b3b"></path><path id="Path_5320" data-name="Path 5320" d="M534.225,365.376H515.852V322.35q0-7.483-2.216-10.556-2.735-3.608-9.774-3.607-14.2,0-14.2,16.434v40.755H471.289V294.155h17.59v6.683a21.749,21.749,0,0,0,.131,3.875.117.117,0,0,1,.13-.135,22.815,22.815,0,0,1,9.316-9.155,26.634,26.634,0,0,1,12.835-3.271q13.811,0,20.067,11.091a26.808,26.808,0,0,1,2.868,12.827Zm0,0" transform="translate(-109.323 -266.761)" fill="#3b3b3b"></path><path id="Path_5321" data-name="Path 5321" d="M599.913,328.351a94.356,94.356,0,0,1-1.044,16.169q-1.56,9.219-6.123,14.433-7.43,8.284-20.849,8.282a31.635,31.635,0,0,1-15.114-3.606,23.045,23.045,0,0,1-10.554-11.09,37.437,37.437,0,0,1-2.736-14.566V274.234h18.373v19.108h38.048v13.5H561.865V336.1a32.847,32.847,0,0,0,.784,8.282q1.805,6.416,9.579,6.415A8.811,8.811,0,0,0,579.216,348q3.624-4.01,3.625-17.24V317.794h17.072Zm0,0" transform="translate(-112.598 -265.949)" fill="#3b3b3b"></path><path id="Path_5322" data-name="Path 5322" d="M652.756,322.89q-.654-7.154-4.755-11.258a12.993,12.993,0,0,0-9.449-4.11,12.182,12.182,0,0,0-8.99,3.844q-4.173,4.107-5.21,11.524Zm18.761,11.892H623.7q.65,8.821,5.475,13.629a14.1,14.1,0,0,0,10.161,4.008,15.025,15.025,0,0,0,7.95-2.137,9.781,9.781,0,0,0,4.557-5.746h18.765q-3.126,10.823-11.205,16.769a31.441,31.441,0,0,1-19.157,5.948q-34.786,0-34.788-38.886,0-16.435,8.8-26.257t24.69-9.819q32.572,0,32.574,42.49" transform="translate(-115.408 -266.768)" fill="#3b3b3b"></path><path id="Path_5323" data-name="Path 5323" d="M720.107,311.678a33.778,33.778,0,0,0-5.083-.4q-16.809,0-16.807,17.1V365.4H679.844V294.174h17.329v5.477a13.447,13.447,0,0,0,.131,3.073,1.54,1.54,0,0,1,.392-.264q5.208-5.617,8.077-7.216,4.564-2.674,11.859-2.674h2.476Zm0,0" transform="translate(-118.782 -266.78)" fill="#3b3b3b"></path></g></svg>